# xmcd
#
# Track frame offsets: 
#        150
#        26027
#        48100
#        67541
#        92672
#        120824
#        152771
#        177457
#        212970
#
# Disc length: 3307 seconds
#
# Revision: 0
# Processed by: cddbd v1.5.2PL0 Copyright (c) Steve Scherf et al.
# Submitted via: ExactAudioCopy v1.3
#
DISCID=690ce909
DTITLE=Bobby Thompson - Live At IOTA
DYEAR=2019
DGENRE=Blues Rock
TTITLE0=Good Things That We Have
TTITLE1=Nobody's Fool
TTITLE2=Again
TTITLE3=Down To Here
TTITLE4=Look Over Yonder's Wall
TTITLE5=Setting Sun
TTITLE6=Hard Road
TTITLE7=Look At You Now
TTITLE8=On Her Wings Again
EXTD=
EXTT0=
EXTT1=
EXTT2=
EXTT3=
EXTT4=
EXTT5=
EXTT6=
EXTT7=
EXTT8=
PLAYORDER=
